<svg width="327" height="188" viewBox="0 0 327 188" fill="none" xmlns="http://www.w3.org/2000/svg">
<g clip-path="url(#clip0_138_4)">
<path d="M103.911 105.381C101.349 105.381 99.1907 104.308 97.4364 102.161C95.6822 100.014 94.8051 97.383 94.8051 94.2669C94.8051 90.4584 95.8553 87.25 97.9558 84.6417C100.079 82.0334 102.676 80.7293 105.746 80.7293C106.946 80.7293 108.054 80.8563 109.07 81.1102C110.108 81.341 110.847 81.5833 111.286 81.8372L111.909 82.2181L109.554 87.0307C109.024 86.569 108.273 86.142 107.304 85.7496C106.335 85.3342 105.457 85.1264 104.673 85.1264C103.08 85.1264 101.799 85.7843 100.829 87.0999C99.8831 88.4156 99.41 90.2968 99.41 92.7435C99.41 95.1671 99.9062 97.1637 100.899 98.7332C101.891 100.28 103.242 101.053 104.95 101.053C106.058 101.053 107.062 100.707 107.962 100.014C108.862 99.3218 109.497 98.3986 109.866 97.2445L112.74 98.9064C111.978 100.938 110.812 102.53 109.243 103.684C107.673 104.815 105.896 105.381 103.911 105.381ZM122.911 105.381C120.834 105.381 119.08 104.746 117.649 103.477C116.241 102.207 115.537 100.638 115.537 98.7679L115.19 81.8026L120.176 80.937L119.622 96.1019C119.622 97.7176 119.991 98.9756 120.73 99.8758C121.492 100.776 122.657 101.226 124.227 101.226C125.797 101.226 126.928 100.788 127.62 99.9104C128.313 99.0333 128.659 97.5214 128.659 95.3748L128.243 81.8026L133.091 80.937L132.71 96.1711C132.71 98.8948 131.798 101.111 129.974 102.819C128.151 104.527 125.797 105.381 122.911 105.381ZM145.256 105.381C143.617 105.381 141.251 105.254 138.158 105L138.574 96.5866L138.158 81.1102H147.403C150.519 81.1102 152.954 82.045 154.708 83.9146C156.462 85.7843 157.339 88.381 157.339 91.7048C157.339 95.9057 156.254 99.241 154.085 101.711C151.915 104.158 148.972 105.381 145.256 105.381ZM146.156 84.8494C144.633 84.8494 143.559 84.861 142.936 84.8841L142.59 95.998L142.832 101.607C144.771 101.745 146.075 101.815 146.745 101.815C148.568 101.815 149.999 101.076 151.038 99.5988C152.1 98.1216 152.631 95.975 152.631 93.159C152.631 90.343 152.111 88.254 151.073 86.8922C150.057 85.5304 148.418 84.8494 146.156 84.8494ZM168.248 105.381C166.609 105.381 164.243 105.254 161.15 105L161.565 96.5866L161.15 81.1102H170.394C173.51 81.1102 175.946 82.045 177.7 83.9146C179.454 85.7843 180.331 88.381 180.331 91.7048C180.331 95.9057 179.246 99.241 177.077 101.711C174.907 104.158 171.964 105.381 168.248 105.381ZM169.148 84.8494C167.624 84.8494 166.551 84.861 165.928 84.8841L165.582 95.998L165.824 101.607C167.763 101.745 169.067 101.815 169.736 101.815C171.56 101.815 172.991 101.076 174.03 99.5988C175.091 98.1216 175.622 95.975 175.622 93.159C175.622 90.343 175.103 88.254 174.064 86.8922C173.049 85.5304 171.41 84.8494 169.148 84.8494ZM184.142 105L184.557 96.5866L184.142 81.8026L189.058 80.937L188.574 95.998L188.816 101.607L195.914 101.053L195.533 105H184.142ZM198.884 105L199.299 96.5866L198.884 81.1102H211.867L211.486 84.8148H203.696L203.488 90.9431H210.413L210.032 94.6131H203.35L203.315 95.998L203.558 101.33H211.936L211.556 105H198.884ZM223.438 81.1102C225.654 81.1102 227.419 81.7449 228.735 83.0144C230.051 84.2609 230.709 85.9805 230.709 88.1732C230.709 90.366 229.878 92.2472 228.216 93.8168C226.554 95.3633 224.523 96.1365 222.122 96.1365H220.149L220.564 105H215.925L216.34 96.5866L215.925 81.1102H223.438ZM222.191 84.6071H220.495L220.252 92.7781H222.607C223.761 92.7781 224.65 92.3972 225.273 91.6355C225.919 90.8738 226.242 89.789 226.242 88.381C226.242 85.865 224.892 84.6071 222.191 84.6071ZM247.528 105.173L245.831 98.4216H237.557L235.722 105L231.29 104.654L234.337 96.2404L238.976 81.3525L245.174 80.9024L249.64 95.721L252.514 104.411L247.528 105.173ZM242.058 85.4034H241.607L238.63 94.7516H244.793L242.058 85.4034ZM275.212 100.672H275.593L277.22 94.717L280.544 80.9024L284.456 81.5256L280.682 95.2709L278.362 104.723L272.026 105.173L270.053 95.9288L268.876 91.3586L267.837 95.2709L265.517 104.723L259.285 105.173L257.208 95.9288L253.607 81.768L258.108 80.9024L260.912 94.2669L262.471 100.672H262.851L264.686 94.2669L267.214 84.9187L266.418 81.768L270.988 80.9024L273.723 94.2669L275.212 100.672ZM288.189 98.11C290.151 100.072 292.113 101.053 294.075 101.053C295.09 101.053 295.898 100.822 296.498 100.361C297.121 99.8758 297.433 99.2641 297.433 98.5255C297.433 97.7638 297.064 97.129 296.325 96.6212C295.586 96.0904 294.686 95.6287 293.624 95.2363C292.586 94.8439 291.547 94.4054 290.508 93.9207C289.47 93.4129 288.581 92.6973 287.842 91.774C287.104 90.8508 286.734 89.7313 286.734 88.4156C286.734 86.3382 287.6 84.5494 289.331 83.049C291.062 81.5256 293.117 80.7639 295.494 80.7639C296.579 80.7639 297.629 80.8793 298.645 81.1102C299.66 81.341 300.641 81.6757 301.588 82.1142L299.233 87.1692C298.587 86.6614 297.698 86.1997 296.567 85.7843C295.459 85.3457 294.478 85.1264 293.624 85.1264C292.793 85.1264 292.113 85.3342 291.582 85.7496C291.074 86.142 290.82 86.6729 290.82 87.3423C290.82 88.0117 291.189 88.6118 291.928 89.1427C292.667 89.6505 293.555 90.1006 294.594 90.493C295.656 90.8854 296.706 91.3239 297.745 91.8087C298.806 92.2703 299.707 92.9628 300.445 93.886C301.184 94.8093 301.553 95.9288 301.553 97.2445C301.553 99.4142 300.688 101.318 298.956 102.957C297.225 104.573 295.206 105.381 292.897 105.381C291.166 105.381 289.631 104.965 288.292 104.134C287.115 103.419 286.284 102.784 285.8 102.23L285.488 101.849L288.189 98.11Z" fill="#FEFFDB"/>
<path d="M25.8571 85.9592C23.6571 85.9592 21.7976 85.1816 20.2786 83.6263C18.7595 82.0711 18 80.1673 18 77.915C18 75.6626 18.7595 73.7588 20.2786 72.2036C21.7976 70.6483 23.6571 69.8707 25.8571 69.8707C28.0571 69.8707 29.9167 70.6483 31.4357 72.2036C32.9548 73.7588 33.7143 75.6626 33.7143 77.915C33.7143 80.1673 32.9548 82.0711 31.4357 83.6263C29.9167 85.1816 28.0571 85.9592 25.8571 85.9592ZM40 73.0884C37.8 73.0884 35.9405 72.3108 34.4214 70.7556C32.9024 69.2004 32.1429 67.2966 32.1429 65.0442C32.1429 62.7918 32.9024 60.888 34.4214 59.3328C35.9405 57.7776 37.8 57 40 57C42.2 57 44.0595 57.7776 45.5786 59.3328C47.0976 60.888 47.8571 62.7918 47.8571 65.0442C47.8571 67.2966 47.0976 69.2004 45.5786 70.7556C44.0595 72.3108 42.2 73.0884 40 73.0884ZM58.8571 73.0884C56.6571 73.0884 54.7976 72.3108 53.2786 70.7556C51.7595 69.2004 51 67.2966 51 65.0442C51 62.7918 51.7595 60.888 53.2786 59.3328C54.7976 57.7776 56.6571 57 58.8571 57C61.0571 57 62.9167 57.7776 64.4357 59.3328C65.9548 60.888 66.7143 62.7918 66.7143 65.0442C66.7143 67.2966 65.9548 69.2004 64.4357 70.7556C62.9167 72.3108 61.0571 73.0884 58.8571 73.0884ZM73 85.9592C70.8 85.9592 68.9405 85.1816 67.4214 83.6263C65.9024 82.0711 65.1429 80.1673 65.1429 77.915C65.1429 75.6626 65.9024 73.7588 67.4214 72.2036C68.9405 70.6483 70.8 69.8707 73 69.8707C75.2 69.8707 77.0595 70.6483 78.5786 72.2036C80.0976 73.7588 80.8571 75.6626 80.8571 77.915C80.8571 80.1673 80.0976 82.0711 78.5786 83.6263C77.0595 85.1816 75.2 85.9592 73 85.9592ZM32.6143 118.136C30.2571 118.136 28.2792 117.211 26.6806 115.362C25.0819 113.513 24.2836 111.327 24.2857 108.805C24.2857 106.016 25.216 103.576 27.0766 101.485C28.9371 99.393 30.783 97.3283 32.6143 95.2905C34.1333 93.628 35.4429 91.8186 36.5429 89.8622C37.6429 87.9059 38.9524 86.0686 40.4714 84.3503C41.6238 82.956 42.9595 81.803 44.4786 80.8913C45.9976 79.9796 47.6476 79.5238 49.4286 79.5238C51.2095 79.5238 52.8595 79.9528 54.3786 80.8109C55.8976 81.6689 57.2333 82.7951 58.3857 84.1894C59.8524 85.9055 61.1493 87.7557 62.2766 89.7399C63.4038 91.7242 64.7259 93.5744 66.2429 95.2905C68.0762 97.3283 69.9221 99.393 71.7806 101.485C73.639 103.576 74.5693 106.016 74.5714 108.805C74.5714 111.325 73.7721 113.511 72.1734 115.362C70.5748 117.214 68.5979 118.138 66.2429 118.136C63.4143 118.136 60.6119 117.895 57.8357 117.412C55.0595 116.929 52.2571 116.688 49.4286 116.688C46.6 116.688 43.7976 116.929 41.0214 117.412C38.2452 117.895 35.4429 118.136 32.6143 118.136Z" fill="#F19600"/>
</g>
<defs>
<clipPath id="clip0_138_4">
<rect width="327" height="188" fill="white"/>
</clipPath>
</defs>
</svg>
